<svg width="17" height="15" viewBox="0 0 17 15" fill="none" xmlns="http://www.w3.org/2000/svg">
<path d="M0.888885 1.22712C0.888885 0.852788 1.19004 0.551636 1.56437 0.551636H2.84497C3.46416 0.551636 4.01299 0.911892 4.26911 1.45228H15.8367C16.5769 1.45228 17.1173 2.1559 16.9231 2.87079L15.7692 7.15728C15.5299 8.04103 14.7278 8.65741 13.8131 8.65741H5.69325L5.84523 9.45954C5.90715 9.77758 6.18578 10.0084 6.50945 10.0084H14.6237C14.998 10.0084 15.2992 10.3095 15.2992 10.6839C15.2992 11.0582 14.998 11.3593 14.6237 11.3593H6.50945C5.53563 11.3593 4.69973 10.667 4.5196 9.71285L3.06731 2.08554C3.04761 1.97859 2.95473 1.9026 2.84497 1.9026H1.56437C1.19004 1.9026 0.888885 1.60145 0.888885 1.22712ZM4.49145 13.6109C4.49145 13.4335 4.5264 13.2579 4.59429 13.0939C4.66218 12.93 4.76169 12.7811 4.88714 12.6557C5.01259 12.5302 5.16152 12.4307 5.32542 12.3628C5.48933 12.2949 5.665 12.26 5.84241 12.26C6.01983 12.26 6.1955 12.2949 6.35941 12.3628C6.52331 12.4307 6.67224 12.5302 6.79769 12.6557C6.92314 12.7811 7.02265 12.93 7.09054 13.0939C7.15843 13.2579 7.19338 13.4335 7.19338 13.6109C7.19338 13.7884 7.15843 13.964 7.09054 14.1279C7.02265 14.2918 6.92314 14.4408 6.79769 14.5662C6.67224 14.6917 6.52331 14.7912 6.35941 14.8591C6.1955 14.927 6.01983 14.9619 5.84241 14.9619C5.665 14.9619 5.48933 14.927 5.32542 14.8591C5.16152 14.7912 5.01259 14.6917 4.88714 14.5662C4.76169 14.4408 4.66218 14.2918 4.59429 14.1279C4.5264 13.964 4.49145 13.7884 4.49145 13.6109ZM13.9482 12.26C14.3065 12.26 14.6501 12.4023 14.9035 12.6557C15.1568 12.909 15.2992 13.2526 15.2992 13.6109C15.2992 13.9692 15.1568 14.3129 14.9035 14.5662C14.6501 14.8196 14.3065 14.9619 13.9482 14.9619C13.5899 14.9619 13.2463 14.8196 12.9929 14.5662C12.7396 14.3129 12.5972 13.9692 12.5972 13.6109C12.5972 13.2526 12.7396 12.909 12.9929 12.6557C13.2463 12.4023 13.5899 12.26 13.9482 12.26Z" fill="#402063"/>
</svg>
