<svg width="17" height="17" viewBox="0 0 17 17" fill="none" xmlns="http://www.w3.org/2000/svg">
<path d="M0 1.71439C0 1.3185 0.3185 1 0.714391 1H2.06876C2.72362 1 3.30406 1.38101 3.57493 1.95252H15.8089C16.5917 1.95252 17.1633 2.69668 16.9579 3.45274L15.7374 7.98615C15.4844 8.92081 14.6361 9.5727 13.6687 9.5727H5.08111L5.24185 10.421C5.30733 10.7574 5.60202 11.0015 5.94433 11.0015H14.526C14.9219 11.0015 15.2404 11.32 15.2404 11.7159C15.2404 12.1118 14.9219 12.4303 14.526 12.4303H5.94433C4.91442 12.4303 4.03036 11.698 3.83985 10.6889L2.30391 2.62226C2.28308 2.50915 2.18485 2.42878 2.06876 2.42878H0.714391C0.3185 2.42878 0 2.11028 0 1.71439ZM3.81009 14.8116C3.81009 14.6239 3.84704 14.4381 3.91885 14.2648C3.99065 14.0914 4.09589 13.9339 4.22857 13.8013C4.36124 13.6686 4.51875 13.5633 4.6921 13.4915C4.86545 13.4197 5.05124 13.3828 5.23887 13.3828C5.4265 13.3828 5.61229 13.4197 5.78564 13.4915C5.95899 13.5633 6.1165 13.6686 6.24917 13.8013C6.38185 13.9339 6.48709 14.0914 6.55889 14.2648C6.6307 14.4381 6.66765 14.6239 6.66765 14.8116C6.66765 14.9992 6.6307 15.185 6.55889 15.3583C6.48709 15.5317 6.38185 15.6892 6.24917 15.8219C6.1165 15.9545 5.95899 16.0598 5.78564 16.1316C5.61229 16.2034 5.4265 16.2404 5.23887 16.2404C5.05124 16.2404 4.86545 16.2034 4.6921 16.1316C4.51875 16.0598 4.36124 15.9545 4.22857 15.8219C4.09589 15.6892 3.99065 15.5317 3.91885 15.3583C3.84704 15.185 3.81009 14.9992 3.81009 14.8116ZM13.8116 13.3828C14.1905 13.3828 14.5539 13.5333 14.8219 13.8013C15.0898 14.0692 15.2404 14.4326 15.2404 14.8116C15.2404 15.1905 15.0898 15.5539 14.8219 15.8219C14.5539 16.0898 14.1905 16.2404 13.8116 16.2404C13.4326 16.2404 13.0692 16.0898 12.8013 15.8219C12.5333 15.5539 12.3828 15.1905 12.3828 14.8116C12.3828 14.4326 12.5333 14.0692 12.8013 13.8013C13.0692 13.5333 13.4326 13.3828 13.8116 13.3828Z" fill="#402063"/>
</svg>
