<svg width="27" height="28" viewBox="0 0 27 28" fill="none" xmlns="http://www.w3.org/2000/svg">
<path d="M13.5 0.710938C6.048 0.710938 0 6.75894 0 14.2109C0 21.6629 6.048 27.7109 13.5 27.7109C20.952 27.7109 27 21.6629 27 14.2109C27 6.75894 20.952 0.710938 13.5 0.710938ZM14.7285 22.5134C14.6342 22.6059 14.5147 22.6687 14.385 22.694C14.2554 22.7193 14.1211 22.7059 13.9989 22.6556C13.8768 22.6053 13.772 22.5202 13.6977 22.411C13.6234 22.3017 13.5829 22.1731 13.581 22.0409V20.9609H13.5C11.772 20.9609 10.044 20.2994 8.721 18.9899C7.80439 18.0711 7.1718 16.9077 6.89888 15.6388C6.62596 14.37 6.72425 13.0494 7.182 11.8349C7.4385 11.1464 8.343 10.9709 8.856 11.4974C9.153 11.7944 9.2205 12.2264 9.0855 12.6044C8.4645 14.2784 8.8155 16.2224 10.1655 17.5724C11.1105 18.5174 12.3525 18.9629 13.5945 18.9359V17.6669C13.5945 17.0594 14.3235 16.7624 14.742 17.1944L16.929 19.3814C17.199 19.6514 17.199 20.0699 16.929 20.3399L14.7285 22.5134ZM18.144 16.9379C18.0044 16.7943 17.9087 16.6139 17.8681 16.4178C17.8274 16.2218 17.8435 16.0182 17.9145 15.8309C18.5355 14.1569 18.1845 12.2129 16.8345 10.8629C15.8895 9.91794 14.6475 9.45894 13.419 9.48594V10.7549C13.419 11.3624 12.69 11.6594 12.2715 11.2274L10.071 9.05394C9.801 8.78394 9.801 8.36544 10.071 8.09544L12.258 5.90844C12.3523 5.81593 12.4718 5.75316 12.6015 5.72788C12.7311 5.70261 12.8654 5.71595 12.9876 5.76626C13.1097 5.81657 13.2145 5.90163 13.2888 6.01089C13.3631 6.12016 13.4036 6.24882 13.4055 6.38094V7.47444C15.1605 7.44744 16.929 8.08194 18.2655 9.43194C19.1821 10.3508 19.8147 11.5142 20.0876 12.783C20.3605 14.0519 20.2623 15.3725 19.8045 16.5869C19.548 17.2889 18.657 17.4644 18.144 16.9379Z" fill="#F8F8F8"/>
</svg>
