<svg width="57" height="42" viewBox="0 0 57 42" fill="none" xmlns="http://www.w3.org/2000/svg">
<path d="M11.328 4.93369C8.76042 4.97459 4.02056 6.24097 1.85589 15.083C0.912158 18.9351 0.548602 22.9509 1.356 27.7302C2.09977 32.1383 3.41918 35.9435 4.30838 38.04C4.61437 38.7626 5.09002 39.5154 5.45661 39.9805C6.51092 41.3135 8.26811 41.2287 9.00583 40.8651C9.81019 40.4698 10.7342 39.5124 10.3995 37.3296C10.2374 36.2752 9.77081 34.7317 9.50874 33.8743C8.70286 31.243 7.63037 28.0665 7.53645 25.8048C7.41072 22.7797 8.6044 22.3829 9.39665 22.2087C10.7297 21.9163 11.8461 23.3781 12.908 25.2125C14.1744 27.4015 16.3451 31.2779 18.1159 34.2393C19.7141 36.913 22.6634 39.776 27.4002 39.5791C32.2295 39.3791 35.7893 37.5371 37.6237 31.7353C38.9962 27.3954 39.9308 24.1522 41.4365 20.8317C43.168 17.0128 45.4766 14.9678 47.4201 15.5935C49.2257 16.1721 49.6756 17.9369 49.6968 20.5302C49.7165 22.8237 49.4514 25.3534 49.2439 27.2106C49.1682 27.8847 49.0333 29.2404 49.0894 29.9948C49.1985 31.4748 49.8392 32.9533 51.5055 33.1896C53.2809 33.441 54.7063 32.0232 55.2744 30.3069C55.4986 29.6313 55.691 28.5951 55.794 27.862C56.3151 24.1552 56.4514 21.6633 56.2166 17.8702C55.9409 13.4348 55.0729 9.39028 53.5596 5.88954C52.1115 2.54179 49.7847 0.396811 46.8005 0.207459C43.4952 -7.06911e-05 39.7051 2.19187 37.7161 6.44396C35.8832 10.3628 34.4169 14.3877 33.5277 16.4402C32.6249 18.5231 31.2994 19.8062 29.2604 20.0213C26.7671 20.2833 24.6206 18.4746 23.0467 15.8949C21.6758 13.6454 18.9567 9.36453 17.5024 7.92545C16.1376 6.57272 14.5773 4.88218 11.328 4.93369Z" fill="#F5F5F5"/>
</svg>
