<svg width="28" height="19" viewBox="0 0 28 19" fill="none" xmlns="http://www.w3.org/2000/svg">
<path d="M0 1.35087C0 0.992598 0.142323 0.648999 0.395661 0.395661C0.648998 0.142324 0.992598 0 1.35087 0H25.6665C26.0248 0 26.3684 0.142324 26.6218 0.395661C26.8751 0.648999 27.0174 0.992598 27.0174 1.35087C27.0174 1.70914 26.8751 2.05274 26.6218 2.30608C26.3684 2.55942 26.0248 2.70174 25.6665 2.70174H1.35087C0.992598 2.70174 0.648998 2.55942 0.395661 2.30608C0.142323 2.05274 0 1.70914 0 1.35087ZM0 9.49932C0 9.14105 0.142323 8.79745 0.395661 8.54411C0.648998 8.29078 0.992598 8.14845 1.35087 8.14845H25.6665C26.0248 8.14845 26.3684 8.29078 26.6218 8.54411C26.8751 8.79745 27.0174 9.14105 27.0174 9.49932C27.0174 9.8576 26.8751 10.2012 26.6218 10.4545C26.3684 10.7079 26.0248 10.8502 25.6665 10.8502H1.35087C0.992598 10.8502 0.648998 10.7079 0.395661 10.4545C0.142323 10.2012 0 9.8576 0 9.49932ZM1.35087 16.2983C0.992598 16.2983 0.648998 16.4406 0.395661 16.6939C0.142323 16.9473 0 17.2909 0 17.6491C0 18.0074 0.142323 18.351 0.395661 18.6043C0.648998 18.8577 0.992598 19 1.35087 19H25.6665C26.0248 19 26.3684 18.8577 26.6218 18.6043C26.8751 18.351 27.0174 18.0074 27.0174 17.6491C27.0174 17.2909 26.8751 16.9473 26.6218 16.6939C26.3684 16.4406 26.0248 16.2983 25.6665 16.2983H1.35087Z" fill="#F8F8F8"/>
</svg>
