<svg width="154" height="114" viewBox="0 0 154 114" fill="none" xmlns="http://www.w3.org/2000/svg">
<path d="M28.9498 13.1713C21.8146 13.285 8.6429 16.8041 2.62744 41.3753C0.0048853 52.0802 -1.00541 63.2398 1.23829 76.5209C3.30518 88.7707 6.9717 99.3451 9.44271 105.171C10.293 107.179 11.6148 109.271 12.6336 110.564C15.5634 114.268 20.4465 114.032 22.4965 113.022C24.7318 111.923 27.2997 109.263 26.3693 103.197C25.9189 100.267 24.6224 95.9775 23.8941 93.5949C21.6546 86.2829 18.6743 77.4554 18.4133 71.1706C18.0639 62.7641 21.381 61.6612 23.5826 61.1771C27.287 60.3646 30.3895 64.4269 33.3404 69.5246C36.8596 75.6074 42.8918 86.3797 47.8128 94.6094C52.2539 102.039 60.4499 109.995 73.6132 109.448C87.0333 108.892 96.9257 103.774 102.023 87.651C105.837 75.5906 108.435 66.5779 112.619 57.3506C117.43 46.7383 123.846 41.0554 129.247 42.7939C134.264 44.402 135.515 49.3061 135.574 56.5129C135.628 62.8862 134.892 69.9161 134.315 75.077C134.105 76.9503 133.73 80.7178 133.886 82.8142C134.189 86.9269 135.969 91.0355 140.6 91.6922C145.533 92.3909 149.495 88.4508 151.073 83.6814C151.696 81.8039 152.231 78.9246 152.517 76.8872C153.965 66.5864 154.344 59.6616 153.692 49.1209C152.925 36.7953 150.513 25.5558 146.308 15.8275C142.284 6.52441 135.818 0.563681 127.525 0.0374863C118.34 -0.539223 107.807 5.55201 102.28 17.3682C97.1867 28.2584 93.1119 39.4431 90.6409 45.1471C88.132 50.9352 84.4486 54.5007 78.7825 55.0985C71.8536 55.8267 65.8887 50.8005 61.5149 43.6316C57.7053 37.3805 50.1491 25.4843 46.108 21.4852C42.3151 17.726 37.9793 13.0282 28.9498 13.1713Z" fill="#5FC323"/>
</svg>
