<svg width="26" height="28" viewBox="0 0 26 28" fill="none" xmlns="http://www.w3.org/2000/svg">
<path d="M2.84932 27.7794C2.06575 27.7794 1.39521 27.5007 0.837699 26.9432C0.280183 26.3856 0.000949772 25.7146 0 24.9301V19.2315C0 18.4479 0.279233 17.7774 0.837699 17.2199C1.39616 16.6624 2.0667 16.3831 2.84932 16.3822H17.0959V12.1082C17.0959 11.7045 17.2327 11.3664 17.5062 11.0938C17.7797 10.8213 18.1178 10.6845 18.5205 10.6835C18.9233 10.6826 19.2618 10.8194 19.5363 11.0938C19.8108 11.3683 19.9471 11.7064 19.9452 12.1082V16.3822H22.7945C23.5781 16.3822 24.2491 16.6614 24.8076 17.2199C25.366 17.7783 25.6448 18.4489 25.6438 19.2315V24.9301C25.6438 25.7137 25.3651 26.3847 24.8076 26.9432C24.25 27.5016 23.579 27.7804 22.7945 27.7794H2.84932ZM5.69863 23.5055C6.10228 23.5055 6.44088 23.3687 6.71441 23.0952C6.98795 22.8216 7.12424 22.4835 7.12329 22.0808C7.12234 21.6781 6.98557 21.34 6.71299 21.0664C6.4404 20.7929 6.10228 20.6561 5.69863 20.6561C5.29498 20.6561 4.95686 20.7929 4.68427 21.0664C4.41169 21.34 4.27492 21.6781 4.27397 22.0808C4.27302 22.4835 4.40979 22.8221 4.68427 23.0966C4.95876 23.3711 5.29688 23.5074 5.69863 23.5055ZM10.6849 23.5055C11.0886 23.5055 11.4272 23.3687 11.7007 23.0952C11.9742 22.8216 12.1105 22.4835 12.1096 22.0808C12.1086 21.6781 11.9719 21.34 11.6993 21.0664C11.4267 20.7929 11.0886 20.6561 10.6849 20.6561C10.2813 20.6561 9.94316 20.7929 9.67058 21.0664C9.39799 21.34 9.26122 21.6781 9.26027 22.0808C9.25932 22.4835 9.39609 22.8221 9.67058 23.0966C9.94506 23.3711 10.2832 23.5074 10.6849 23.5055ZM15.6712 23.5055C16.0749 23.5055 16.4135 23.3687 16.687 23.0952C16.9605 22.8216 17.0968 22.4835 17.0959 22.0808C17.0949 21.6781 16.9582 21.34 16.6856 21.0664C16.413 20.7929 16.0749 20.6561 15.6712 20.6561C15.2676 20.6561 14.9295 20.7929 14.6569 21.0664C14.3843 21.34 14.2475 21.6781 14.2466 22.0808C14.2456 22.4835 14.3824 22.8221 14.6569 23.0966C14.9314 23.3711 15.2695 23.5074 15.6712 23.5055ZM18.5205 8.54655C18.2594 8.54655 18.0219 8.5703 17.8082 8.61779C17.5945 8.66528 17.3808 8.73651 17.1671 8.83149C16.7872 8.9977 16.4016 9.06893 16.0103 9.04518C15.619 9.02144 15.2804 8.8671 14.9945 8.58217C14.7086 8.29724 14.5719 7.95295 14.5842 7.54929C14.5966 7.14564 14.769 6.84884 15.1014 6.65888C15.6 6.35021 16.1404 6.11276 16.7226 5.94655C17.3048 5.78034 17.9041 5.69724 18.5205 5.69724C19.1616 5.69724 19.7671 5.78034 20.337 5.94655C20.9068 6.11276 21.4411 6.35021 21.9397 6.65888C22.2721 6.84884 22.4445 7.14564 22.4569 7.54929C22.4692 7.95295 22.3325 8.29724 22.0466 8.58217C21.7607 8.8671 21.4164 9.02144 21.0137 9.04518C20.611 9.06893 20.2192 8.9977 19.8384 8.83149C19.6484 8.73651 19.4409 8.66528 19.2158 8.61779C18.9907 8.5703 18.7589 8.54655 18.5205 8.54655ZM18.5205 3.56025C17.5945 3.56025 16.7103 3.69702 15.8678 3.97055C15.0254 4.24409 14.2475 4.64157 13.5342 5.16299C13.2018 5.40044 12.8395 5.50728 12.4472 5.48354C12.055 5.4598 11.7287 5.31733 11.4685 5.05614C11.1836 4.77121 11.0411 4.43879 11.0411 4.05888C11.0411 3.67897 11.1954 3.3703 11.5041 3.13286C12.4776 2.37304 13.558 1.77943 14.7452 1.35203C15.9324 0.924636 17.1909 0.710938 18.5205 0.710938C19.8502 0.710938 21.1087 0.924636 22.2959 1.35203C23.4831 1.77943 24.5635 2.37304 25.537 3.13286C25.8457 3.3703 26 3.67897 26 4.05888C26 4.43879 25.8575 4.77121 25.5726 5.05614C25.3114 5.31733 24.9847 5.4598 24.5924 5.48354C24.2002 5.50728 23.8383 5.40044 23.5068 5.16299C22.7945 4.64062 22.0167 4.24314 21.1733 3.97055C20.3299 3.69797 19.4456 3.5612 18.5205 3.56025Z" fill="#F8F8F8"/>
</svg>
