<svg width="22" height="28" viewBox="0 0 22 28" fill="none" xmlns="http://www.w3.org/2000/svg">
<path d="M21.3333 3.37759C21.3333 2.67035 21.0523 1.99208 20.5522 1.49198C20.0521 0.991888 19.3738 0.710938 18.6666 0.710938H7.99997L0 8.71091V24.7108C0 25.4181 0.28095 26.0964 0.781045 26.5965C1.28114 27.0966 1.95942 27.3775 2.66666 27.3775H18.6666C19.3738 27.3775 20.0521 27.0966 20.5522 26.5965C21.0523 26.0964 21.3333 25.4181 21.3333 24.7108V3.37759ZM6.66664 23.3775H3.99998V20.7109H6.66664V23.3775ZM17.3333 23.3775H14.6666V20.7109H17.3333V23.3775ZM6.66664 18.0442H3.99998V12.7109H6.66664V18.0442ZM12 23.3775H9.3333V18.0442H12V23.3775ZM12 15.3775H9.3333V12.7109H12V15.3775ZM17.3333 18.0442H14.6666V12.7109H17.3333V18.0442Z" fill="#F8F8F8"/>
</svg>
