<svg width="17" height="17" viewBox="0 0 17 17" fill="none" xmlns="http://www.w3.org/2000/svg">
<path d="M6.8 11.5L11.2115 8.95L6.8 6.4V11.5ZM16.626 4.8445C16.7365 5.244 16.813 5.7795 16.864 6.4595C16.9235 7.1395 16.949 7.726 16.949 8.236L17 8.95C17 10.8115 16.864 12.18 16.626 13.0555C16.4135 13.8205 15.9205 14.3135 15.1555 14.526C14.756 14.6365 14.025 14.713 12.903 14.764C11.798 14.8235 10.7865 14.849 9.8515 14.849L8.5 14.9C4.9385 14.9 2.72 14.764 1.8445 14.526C1.0795 14.3135 0.5865 13.8205 0.374 13.0555C0.2635 12.656 0.187 12.1205 0.136 11.4405C0.0765001 10.7605 0.051 10.174 0.051 9.664L0 8.95C0 7.0885 0.136 5.72 0.374 4.8445C0.5865 4.0795 1.0795 3.5865 1.8445 3.374C2.244 3.2635 2.975 3.187 4.097 3.136C5.202 3.0765 6.2135 3.051 7.1485 3.051L8.5 3C12.0615 3 14.28 3.136 15.1555 3.374C15.9205 3.5865 16.4135 4.0795 16.626 4.8445Z" fill="#372250"/>
</svg>
