<svg width="19" height="13" viewBox="0 0 19 13" fill="none" xmlns="http://www.w3.org/2000/svg">
<path d="M7.33333 9.16667L12.0908 6.41667L7.33333 3.66667V9.16667ZM17.93 1.98917C18.0492 2.42 18.1317 2.9975 18.1867 3.73083C18.2508 4.46417 18.2783 5.09667 18.2783 5.64667L18.3333 6.41667C18.3333 8.42417 18.1867 9.9 17.93 10.8442C17.7008 11.6692 17.1692 12.2008 16.3442 12.43C15.9133 12.5492 15.125 12.6317 13.915 12.6867C12.7233 12.7508 11.6325 12.7783 10.6242 12.7783L9.16667 12.8333C5.32583 12.8333 2.93333 12.6867 1.98917 12.43C1.16417 12.2008 0.6325 11.6692 0.403333 10.8442C0.284167 10.4133 0.201667 9.83583 0.146667 9.1025C0.0825001 8.36917 0.0549999 7.73667 0.0549999 7.18667L0 6.41667C0 4.40917 0.146667 2.93333 0.403333 1.98917C0.6325 1.16417 1.16417 0.6325 1.98917 0.403333C2.42 0.284167 3.20833 0.201667 4.41833 0.146667C5.61 0.0824999 6.70083 0.0549999 7.70917 0.0549999L9.16667 0C13.0075 0 15.4 0.146667 16.3442 0.403333C17.1692 0.6325 17.7008 1.16417 17.93 1.98917Z" fill="#372250"/>
</svg>
